<?xml version="1.0" encoding="UTF-8" standalone="no"?>
<!-- Created with Inkscape (http://www.inkscape.org/) -->

<svg
   xmlns:dc="http://purl.org/dc/elements/1.1/"
   xmlns:cc="http://creativecommons.org/ns#"
   xmlns:rdf="http://www.w3.org/1999/02/22-rdf-syntax-ns#"
   xmlns:svg="http://www.w3.org/2000/svg"
   xmlns="http://www.w3.org/2000/svg"
   xmlns:sodipodi="http://sodipodi.sourceforge.net/DTD/sodipodi-0.dtd"
   xmlns:inkscape="http://www.inkscape.org/namespaces/inkscape"
   width="145"
   height="16"
   viewBox="0 0 145 16"
   id="svg2"
   version="1.1"
   inkscape:version="0.91 r13725"
   sodipodi:docname="image.svg">
  <defs
     id="defs4" />
  <sodipodi:namedview
     id="base"
     pagecolor="#ffffff"
     bordercolor="#666666"
     borderopacity="1.0"
     inkscape:pageopacity="0.0"
     inkscape:pageshadow="2"
     inkscape:zoom="3.959798"
     inkscape:cx="52.109338"
     inkscape:cy="-17.235541"
     inkscape:document-units="px"
     inkscape:current-layer="layer1"
     showgrid="false"
     units="px"
     inkscape:window-width="1280"
     inkscape:window-height="695"
     inkscape:window-x="0"
     inkscape:window-y="1"
     inkscape:window-maximized="1" />
  <metadata
     id="metadata7">
    <rdf:RDF>
      <cc:Work
         rdf:about="">
        <dc:format>image/svg+xml</dc:format>
        <dc:type
           rdf:resource="http://purl.org/dc/dcmitype/StillImage" />
        <dc:title></dc:title>
      </cc:Work>
    </rdf:RDF>
  </metadata>
  <g
     inkscape:label="Layer 1"
     inkscape:groupmode="layer"
     id="layer1"
     transform="translate(0,-1036.3622)">
    <path
       style="fill:#000000"
       d="m 5.666419,1051.1383 c -0.7356513,-0.2662 -1.4509091,-1.0594 -1.4509091,-1.6093 0,-0.3539 0.072219,-0.3951 0.5656838,-0.3226 0.3111272,0.045 0.7331653,0.2772 0.9378571,0.5144 0.5581071,0.647 1.7623279,0.8638 2.568641,0.4625 0.8588641,-0.4276 1.2619144,-1.0332 1.4005214,-2.1043 l 0.1155726,-0.8933 -0.4271659,0.3901 c -0.9498353,0.8673 -2.4560921,1.016 -3.7388027,0.3692 -2.3708457,-1.1955 -2.3726434,-5.9598 -0.00255,-7.1854 1.2148626,-0.6282 2.8311607,-0.4907 3.7162864,0.3163 l 0.4019386,0.3663 0,-0.4777 c 0,-0.4269 0.066545,-0.4778 0.6252378,-0.4778 l 0.625238,0 0,3.7427 c 0,2.0584 -0.08755,4.1509 -0.19456,4.6498 -0.225088,1.0496 -0.8786573,1.9128 -1.7117342,2.2609 -0.7107881,0.297 -2.6079217,0.296 -3.4310947,0 z m 2.8546785,-4.2693 c 1.4577893,-0.9752 1.5319885,-4.0437 0.1216688,-5.0316 -0.520475,-0.3645 -1.8200125,-0.3566 -2.3864424,0.015 -0.8499805,0.557 -1.2284821,1.8921 -0.9524368,3.3596 0.3372479,1.7929 1.8499352,2.5722 3.2172104,1.6576 z m 13.6476755,1.3874 c -0.841647,-0.2984 -1.332073,-0.8368 -1.359569,-1.4924 -0.0831,-1.9813 0.453878,-2.4875 3.134675,-2.9554 1.713032,-0.299 2.065644,-0.4833 2.065644,-1.0796 0,-0.6652 -0.714525,-1.1704 -1.655526,-1.1704 -1.084064,0 -1.679435,0.2877 -1.899081,0.9178 -0.15126,0.4339 -0.274793,0.5113 -0.816171,0.5113 -0.605198,0 -0.631932,-0.025 -0.520938,-0.4913 0.201,-0.8439 0.653884,-1.4564 1.311077,-1.7729 0.789467,-0.3803 2.901162,-0.4243 3.723044,-0.077 0.9671,0.4079 1.10807,0.9093 1.10807,3.9407 0,2.5694 0.01584,2.6884 0.357279,2.6884 0.518486,0 0.507422,1.0002 -0.01289,1.1653 -0.579415,0.1839 -1.230515,-0.061 -1.451533,-0.5462 -0.185808,-0.4078 -0.226451,-0.4206 -0.512949,-0.1613 -0.348576,0.3155 -1.810307,0.7969 -2.383022,0.7849 -0.205447,-0.01 -0.695095,-0.1219 -1.088101,-0.2613 z m 2.907345,-1.3394 c 0.65495,-0.3993 0.933405,-0.9678 0.933405,-1.9057 0,-0.4562 -0.06694,-0.607 -0.239955,-0.5406 -0.131973,0.051 -0.714784,0.1499 -1.295136,0.2205 -1.594953,0.1941 -2.394979,0.7251 -2.394979,1.5896 0,0.9502 1.840697,1.341 2.996665,0.6362 z m 6.381907,1.4511 c -1.831257,-0.4709 -2.713799,-1.9638 -2.547788,-4.3099 0.13876,-1.961 0.900272,-3.0628 2.4228,-3.5054 2.070266,-0.6018 3.991443,0.2478 4.419823,1.9546 0.116207,0.463 0.09405,0.4803 -0.613359,0.4803 -0.54335,0 -0.733925,-0.072 -0.733925,-0.2765 0,-0.5573 -0.894535,-1.1526 -1.732032,-1.1526 -1.630928,0 -2.421335,0.9606 -2.421335,2.9427 0,1.8447 0.756227,2.7738 2.257662,2.7738 0.912565,0 1.781063,-0.5908 1.968929,-1.3393 0.09378,-0.3736 0.218058,-0.4471 0.756386,-0.4471 0.627991,0 0.641323,0.014 0.531033,0.5657 -0.142803,0.7139 -0.871097,1.679 -1.520582,2.0148 -0.626458,0.324 -2.082838,0.4801 -2.787612,0.2989 z m 11.444408,-0.044 c -0.963498,-0.2258 -1.860591,-0.9534 -2.259997,-1.8329 -0.457071,-1.0065 -0.457071,-3.1437 0,-4.1502 0.924589,-2.036 3.980849,-2.6758 5.734269,-1.2004 0.929022,0.7817 1.318662,1.7491 1.319324,3.2756 8.24e-4,2.0526 -0.83815,3.3622 -2.463314,3.8449 -0.989117,0.2937 -1.309242,0.3023 -2.330282,0.063 z m 2.228628,-1.3214 c 0.717782,-0.3711 1.243357,-1.4646 1.243357,-2.5865 0,-1.7618 -0.964113,-2.8583 -2.513097,-2.8583 -0.622157,0 -0.854568,0.1102 -1.414822,0.6704 -1.191985,1.1919 -1.191985,3.1837 0,4.3757 0.560254,0.5602 0.792665,0.6704 1.414822,0.6704 0.409444,0 0.980828,-0.1223 1.26974,-0.2717 z m 15.278037,1.3214 c -1.713349,-0.4016 -2.593911,-1.7282 -2.593911,-3.9079 0,-0.9273 0.102831,-1.5663 0.333913,-2.0752 0.924589,-2.036 3.98085,-2.6758 5.73427,-1.2004 0.929022,0.7817 1.318659,1.7491 1.319326,3.2756 8.24e-4,2.0526 -0.838152,3.3622 -2.463317,3.8449 -0.989116,0.2937 -1.309242,0.3023 -2.330281,0.063 z m 2.228628,-1.3214 c 0.717782,-0.3711 1.243354,-1.4646 1.243354,-2.5865 0,-1.7618 -0.964111,-2.8583 -2.513095,-2.8583 -0.998277,0 -2.022876,0.9718 -2.213382,2.0995 -0.211758,1.2533 0.04212,2.1901 0.798564,2.9466 0.56025,0.5602 0.792661,0.6704 1.414818,0.6704 0.409445,0 0.980828,-0.1223 1.269741,-0.2717 z m 6.334579,1.3647 c -1.831258,-0.4709 -2.713795,-1.9639 -2.547782,-4.3099 0.138756,-1.961 0.900267,-3.0628 2.422795,-3.5054 2.070264,-0.6018 3.991446,0.2478 4.419827,1.9546 0.116201,0.4629 0.09404,0.4803 -0.613359,0.4803 -0.543356,0 -0.733933,-0.072 -0.733933,-0.2765 0,-0.5573 -0.894527,-1.1526 -1.732029,-1.1526 -1.630922,0 -2.421337,0.9606 -2.421337,2.9426 0,1.8447 0.756232,2.7739 2.257663,2.7739 0.912569,0 1.781067,-0.5908 1.968935,-1.3393 0.09378,-0.3736 0.218057,-0.4472 0.756381,-0.4472 0.627992,0 0.641324,0.014 0.531036,0.5657 -0.1428,0.714 -0.8711,1.6791 -1.520585,2.0149 -0.62646,0.324 -2.082838,0.4801 -2.787612,0.2989 z m 8.038773,0 c -1.831258,-0.4709 -2.713796,-1.9639 -2.547782,-4.3099 0.138756,-1.961 0.900267,-3.0628 2.422794,-3.5054 2.070264,-0.6018 3.991446,0.2478 4.419827,1.9546 0.11621,0.4629 0.09404,0.4803 -0.613359,0.4803 -0.543355,0 -0.733924,-0.072 -0.733924,-0.2765 0,-0.5573 -0.894536,-1.1526 -1.732037,-1.1526 -1.630922,0 -2.421329,0.9606 -2.421329,2.9426 0,1.8447 0.756224,2.7739 2.257663,2.7739 0.912561,0 1.781058,-0.5908 1.968926,-1.3393 0.09379,-0.3736 0.218057,-0.4472 0.756381,-0.4472 0.627992,0 0.641325,0.014 0.531036,0.5657 -0.142799,0.714 -0.871099,1.6791 -1.520584,2.0149 -0.626453,0.324 -2.082839,0.4801 -2.787612,0.2989 z m 8.574688,0.078 c -0.09825,-0.038 -0.401726,-0.1177 -0.674396,-0.1779 -0.27267,-0.06 -0.814831,-0.3977 -1.204797,-0.7501 -1.642957,-1.4843 -1.647198,-4.7154 -0.0082,-6.1962 1.043149,-0.9424 2.247501,-1.2094 3.673732,-0.8144 1.069664,0.2963 1.691085,0.8241 2.1626,1.8367 0.930876,1.9992 0.311703,4.7251 -1.269407,5.5885 -0.66369,0.3625 -2.269883,0.6702 -2.679588,0.5134 z m 1.944519,-1.5445 c 1.401468,-1.1025 1.50087,-3.4523 0.201019,-4.7521 -0.488495,-0.4885 -0.726546,-0.5912 -1.368455,-0.5907 -1.564361,0 -2.474156,1.0521 -2.474156,2.8575 0,1.1952 0.380505,2.0543 1.10575,2.4964 0.785976,0.4793 1.918769,0.4742 2.535842,-0.011 z m 7.314804,1.3036 c -2.290701,-0.8185 -3.657699,-2.802 -3.657699,-5.3073 0,-2.3313 1.192692,-4.1523 3.36039,-5.1306 1.173151,-0.5295 3.209051,-0.541 4.346628,-0.025 1.868992,0.8484 2.853362,2.3254 2.856482,4.2864 0.002,1.3327 -0.63413,2.6939 -1.63909,3.5065 -1.036696,0.8383 -2.646504,0.9672 -2.646504,0.2118 0,-0.3445 -0.116712,-0.3275 -0.725361,0.1059 -1.057016,0.7527 -2.576925,0.4976 -3.103531,-0.5207 -0.446893,-0.8642 -0.363787,-2.4639 0.18525,-3.5656 0.647797,-1.3 1.443663,-1.866 2.75725,-1.9611 0.961188,-0.069 1.080485,-0.035 1.508694,0.4263 0.459327,0.4956 0.46622,0.4969 0.567409,0.11 0.07658,-0.293 0.237021,-0.3917 0.636622,-0.3917 0.353511,0 0.505508,0.076 0.44938,0.2233 -0.419669,1.1048 -1.394189,4.8478 -1.315522,5.0528 0.303377,0.7906 1.729093,-0.6206 2.174353,-2.1522 0.4235,-1.4568 0.13101,-2.5561 -0.972339,-3.6547 -2.811872,-2.7997 -7.456459,-0.5597 -7.422432,3.5798 0.03393,4.124 4.669628,6.1509 7.793837,3.4078 0.584204,-0.513 1.396454,-0.7594 1.396454,-0.4238 0,0.076 -0.2428,0.4325 -0.53957,0.7925 -1.221874,1.4824 -4.008037,2.1449 -6.010701,1.4293 z m 2.073961,-3.5778 c 1.123866,-1.1814 1.397055,-2.7945 0.598594,-3.5345 -0.801293,-0.7426 -1.946051,-0.2318 -2.675158,1.1938 -0.548444,1.0723 -0.539485,2.0205 0.02446,2.5844 0.645079,0.6451 1.278202,0.5699 2.052147,-0.2437 z m 27.73678,3.7218 c -0.32334,-0.077 -0.74493,-0.2814 -0.93686,-0.4551 -0.71792,-0.6497 -0.82261,-2.2804 -0.19289,-3.0048 0.45199,-0.5199 1.11497,-0.7936 2.44824,-1.011 2.24953,-0.3668 2.78471,-0.8191 2.08364,-1.761 -0.29541,-0.397 -0.50887,-0.4782 -1.37563,-0.5239 -1.17287,-0.062 -1.81395,0.2439 -1.99105,0.9495 -0.0924,0.368 -0.21947,0.4444 -0.73973,0.4444 -0.60653,0 -0.6244,-0.019 -0.51801,-0.551 0.19806,-0.9903 0.76245,-1.5638 1.85024,-1.88 1.19735,-0.3481 2.77136,-0.2277 3.44341,0.2633 0.78596,0.5743 0.88776,1.011 0.89057,3.8201 0.002,2.5149 0.0189,2.6349 0.35991,2.6349 0.27572,0 0.35728,0.1191 0.35728,0.5217 0,0.436 -0.0893,0.5414 -0.54318,0.6411 -0.61725,0.1355 -1.42186,-0.2789 -1.42186,-0.7325 0,-0.2312 -0.0798,-0.2193 -0.49125,0.073 -0.90651,0.6443 -2.05495,0.8478 -3.22283,0.5711 z m 2.66519,-1.3544 c 0.59787,-0.3092 1.04889,-1.1911 1.04889,-2.0509 0,-0.5132 -0.0377,-0.5477 -0.49125,-0.4492 -0.27019,0.059 -0.96611,0.1836 -1.54647,0.2774 -0.66155,0.1069 -1.21137,0.3173 -1.47378,0.5638 -0.54073,0.508 -0.55087,1.2898 -0.0215,1.6606 0.51088,0.3578 1.79054,0.3569 2.48414,0 z M 1,1044.4168 l 0,-3.9301 0.6252378,0 0.6252386,0 0,3.9301 0,3.9301 -0.6252386,0 -0.6252378,0 0,-3.9301 z m 11.790203,0 0,-3.9301 0.625237,0 c 0.580253,0 0.625239,0.04 0.625239,0.5545 l 0,0.5544 0.6177,-0.5423 c 1.149163,-1.009 3.279809,-0.9024 4.10033,0.2051 0.34119,0.4606 0.377969,0.7861 0.428901,3.7962 l 0.05571,3.2923 -0.636285,0 -0.636285,0 0,-2.9557 c 0,-2.8999 -0.0083,-2.9639 -0.438478,-3.3941 -0.583888,-0.5839 -1.797905,-0.6087 -2.506629,-0.051 -0.818003,0.6435 -0.98496,1.3187 -0.98496,3.9837 l 0,2.4174 -0.625239,0 -0.625238,0 0,-3.9301 z m 24.637357,3.856 c -0.04093,-0.041 -0.05129,-1.8093 -0.02301,-3.93 l 0.05143,-3.8561 0.61847,0 0.61847,0 0,3.9301 0,3.9301 -0.595465,0 c -0.327507,0 -0.628962,-0.033 -0.669897,-0.074 z m 12.162368,-0.8191 0,-0.8932 0.803877,0 0.803877,0 0,0.8932 0,0.8932 -0.803877,0 -0.803877,0 0,-0.8932 z m 3.751428,-3.0369 0,-3.9301 0.625238,0 c 0.615965,0 0.625237,0.012 0.625237,0.7553 l 0,0.7552 0.543796,-0.6596 c 0.330944,-0.4016 0.802923,-0.7317 1.205816,-0.8436 1.033448,-0.2871 1.108619,-0.2527 1.108619,0.5059 0,0.661 -0.02969,0.6964 -0.669897,0.7995 -1.648359,0.2651 -2.055757,1.0556 -2.154743,4.1805 l -0.07498,2.367 -0.604544,0 -0.604547,0 0,-3.9301 z m 50.197684,0 0,-3.9301 0.62524,0 0.62524,0 0,3.9301 0,3.9301 -0.62524,0 -0.62524,0 0,-3.9301 z m 3.39415,0 0,-3.9301 0.53592,0 c 0.48035,0 0.53592,0.058 0.53592,0.5545 l 0,0.5544 0.6177,-0.5423 c 1.09359,-0.9603 3.10221,-0.9251 4.03856,0.071 0.42457,0.4514 0.43629,0.5433 0.49045,3.8428 l 0.0555,3.3802 -0.63606,0 -0.63607,0 0,-2.9235 c 0,-2.6871 -0.0299,-2.9615 -0.37025,-3.3942 -0.31019,-0.3943 -0.51254,-0.4707 -1.24765,-0.4707 -0.71677,0 -0.98423,0.095 -1.46081,0.5209 l -0.5834,0.5208 -0.057,2.8733 -0.057,2.8734 -0.61294,0 -0.61295,0 0,-3.9301 z m 8.21741,-0.012 0,-3.9414 0.58058,0.056 c 0.54186,0.052 0.58057,0.1007 0.58057,0.726 0,0.3685 0.0226,0.67 0.0502,0.6699 0.0276,0 0.29544,-0.2795 0.59528,-0.621 0.48054,-0.5472 1.39891,-0.9828 2.07887,-0.9858 0.14159,-6e-4 0.22329,0.2604 0.22329,0.7135 0,0.6603 -0.0373,0.7146 -0.49125,0.7153 -0.62693,8e-4 -1.54082,0.5562 -1.95534,1.1883 -0.26194,0.3994 -0.3339,0.9531 -0.38411,2.9561 l -0.0618,2.4646 -0.60812,0 -0.6081,0 0,-3.9414 z m 5.16566,3.8673 c -0.0409,-0.041 -0.0513,-1.8093 -0.0231,-3.9301 l 0.0515,-3.856 0.61846,0 0.61848,0 0,3.9301 0,3.9301 -0.59547,0 c -0.32751,0 -0.62896,-0.033 -0.6699,-0.074 z m 11.62644,-0.8192 0,-0.8932 0.80388,0 0.80388,0 0,0.8932 0,0.8933 -0.80388,0 -0.80388,0 0,-0.8933 z m 4.28735,-2.4116 0,-3.3048 -0.62524,0 c -0.59546,0 -0.62524,-0.03 -0.62524,-0.6252 0,-0.5955 0.0298,-0.6253 0.62524,-0.6253 0.62294,0 0.62524,0 0.62524,-0.8127 0,-1.1445 0.39152,-1.8093 1.21009,-2.0545 0.36964,-0.1107 0.91179,-0.1742 1.20477,-0.1409 0.45657,0.052 0.54075,0.1445 0.58914,0.6475 0.053,0.5503 0.0277,0.5797 -0.40324,0.4715 -0.75928,-0.1905 -1.35028,0.3254 -1.35028,1.1787 l 0,0.7104 0.8152,0 c 0.81209,0 0.81497,0 0.75921,0.5806 -0.0525,0.5449 -0.10257,0.584 -0.81519,0.6355 l -0.75922,0.055 0,3.2946 0,3.2945 -0.62523,0 -0.62525,0 0,-3.3048 z m 3.93007,-0.6252 0,-3.9301 0.53592,0 c 0.50614,0 0.53592,0.04 0.53592,0.7146 0,0.829 0.19136,0.9123 0.55038,0.2396 0.26852,-0.5032 1.41185,-1.1224 2.08455,-1.1289 0.35049,0 0.40194,0.088 0.40194,0.7106 0,0.6504 -0.0418,0.7146 -0.46426,0.7146 -0.85313,0 -1.70179,0.5476 -2.05544,1.3262 -0.2656,0.5848 -0.33146,1.1765 -0.33462,3.0058 l -0.004,2.2777 -0.62525,0 -0.62523,0 0,-3.9301 z M 1,1038.3431 c 0,-0.6975 0.014889,-0.7146 0.6252378,-0.7146 0.6103526,0 0.6252386,0.017 0.6252386,0.7146 0,0.6975 -0.014889,0.7146 -0.6252386,0.7146 C 1.014886,1039.0577 1,1039.0406 1,1038.3431 Z m 36.353126,0 c 0,-0.7067 0.0075,-0.7146 0.669898,-0.7146 0.662455,0 0.669898,0.01 0.669898,0.7146 0,0.7066 -0.0075,0.7146 -0.669898,0.7146 -0.662455,0 -0.669898,-0.01 -0.669898,-0.7146 z m 66.185914,0 c 0,-0.6975 0.0149,-0.7146 0.62523,-0.7146 0.61035,0 0.62524,0.017 0.62524,0.7146 0,0.6975 -0.0149,0.7146 -0.62524,0.7146 -0.61035,0 -0.62523,-0.017 -0.62523,-0.7146 z m 16.70278,0 c 0,-0.7067 0.007,-0.7146 0.66989,-0.7146 0.66246,0 0.6699,0.01 0.6699,0.7146 0,0.7066 -0.007,0.7146 -0.6699,0.7146 -0.66245,0 -0.66989,-0.01 -0.66989,-0.7146 z"
       id="path4233"
       inkscape:connector-curvature="0" />
  </g>
</svg>
